<?xml version="1.0" encoding="UTF-8" standalone="no"?>
<!-- Created with Inkscape (http://www.inkscape.org/) -->

<svg
   width="340mm"
   height="210mm"
   viewBox="0 0 340 210"
   version="1.1"
   id="svg5"
   inkscape:version="1.2.2 (b0a84865, 2022-12-01)"
   sodipodi:docname="logo.svg"
   xmlns:inkscape="http://www.inkscape.org/namespaces/inkscape"
   xmlns:sodipodi="http://sodipodi.sourceforge.net/DTD/sodipodi-0.dtd"
   xmlns:xlink="http://www.w3.org/1999/xlink"
   xmlns="http://www.w3.org/2000/svg"
   xmlns:svg="http://www.w3.org/2000/svg">
  <sodipodi:namedview
     id="namedview7"
     pagecolor="#ffffff"
     bordercolor="#000000"
     borderopacity="0.25"
     inkscape:showpageshadow="2"
     inkscape:pageopacity="0.0"
     inkscape:pagecheckerboard="0"
     inkscape:deskcolor="#d1d1d1"
     inkscape:document-units="mm"
     showgrid="false"
     inkscape:zoom="1.1309551"
     inkscape:cx="680.84049"
     inkscape:cy="579.15652"
     inkscape:window-width="1440"
     inkscape:window-height="900"
     inkscape:window-x="0"
     inkscape:window-y="0"
     inkscape:window-maximized="0"
     inkscape:current-layer="layer3" />
  <defs
     id="defs2">
    <linearGradient
       inkscape:collect="always"
       id="linearGradient1349">
      <stop
         style="stop-color:#ffe813;stop-opacity:1;"
         offset="0"
         id="stop1345" />
      <stop
         style="stop-color:#ff8d03;stop-opacity:1;"
         offset="1"
         id="stop1347" />
    </linearGradient>
    <linearGradient
       inkscape:collect="always"
       xlink:href="#linearGradient1349"
       id="linearGradient2904"
       gradientUnits="userSpaceOnUse"
       x1="201.61787"
       y1="86.654259"
       x2="201.27264"
       y2="12.083263"
       gradientTransform="matrix(0.84146581,0,0,1.3958739,-110.58795,81.383609)" />
    <linearGradient
       inkscape:collect="always"
       xlink:href="#linearGradient1349"
       id="linearGradient3056"
       gradientUnits="userSpaceOnUse"
       gradientTransform="matrix(0.84146581,0,0,1.3958739,-99.144057,81.379603)"
       x1="201.61787"
       y1="86.654259"
       x2="201.27264"
       y2="12.083263" />
    <linearGradient
       inkscape:collect="always"
       xlink:href="#linearGradient1349"
       id="linearGradient3070"
       gradientUnits="userSpaceOnUse"
       gradientTransform="matrix(0.84146581,0,0,1.3958739,-87.469263,81.505138)"
       x1="201.61787"
       y1="86.654259"
       x2="201.27264"
       y2="12.083263" />
    <linearGradient
       inkscape:collect="always"
       xlink:href="#linearGradient1349"
       id="linearGradient3172"
       gradientUnits="userSpaceOnUse"
       gradientTransform="matrix(0.84146581,0,0,0.99742308,31.067956,-0.05560753)"
       x1="201.61787"
       y1="86.654259"
       x2="201.27264"
       y2="12.083263" />
    <linearGradient
       inkscape:collect="always"
       xlink:href="#linearGradient1349"
       id="linearGradient3208"
       gradientUnits="userSpaceOnUse"
       gradientTransform="matrix(0.84146581,0,0,0.99742308,42.751152,-0.18141536)"
       x1="201.61787"
       y1="86.654259"
       x2="201.27264"
       y2="12.083263" />
    <linearGradient
       inkscape:collect="always"
       xlink:href="#linearGradient1349"
       id="linearGradient3222"
       gradientUnits="userSpaceOnUse"
       gradientTransform="matrix(0.84146581,0,0,0.99742308,54.567283,0.00112449)"
       x1="201.61787"
       y1="86.654259"
       x2="201.27264"
       y2="12.083263" />
  </defs>
  <g
     inkscape:label="Warstwa 1"
     inkscape:groupmode="layer"
     id="layer1"
     transform="scale(1.1500784,1)"
     sodipodi:insensitive="true">
    <rect
       style="fill:#0000aa;stroke-width:0.265001"
       id="rect111"
       width="298.13947"
       height="210.82243"
       x="0"
       y="8.7638883e-09"
       ry="0" />
  </g>
  <g
     inkscape:groupmode="layer"
     id="layer3"
     inkscape:label="Warstwa 3">
    <path
       style="fill:#000000;stroke-width:0.447157"
       d="m 73.468943,44.011857 0.499626,43.251387 c 0.01515,2.3996 -1.592378,4.910364 -5.140254,5.332192 l -14.802321,-0.05973 0.111989,-2.904576 13.121622,-6.177573 0.04014,-39.605201 z"
       id="path5943"
       sodipodi:nodetypes="cccccccc" />
    <rect
       style="fill:#000000;stroke-width:0.53196"
       id="rect5997"
       width="21.173534"
       height="4.9570966"
       x="79.928131"
       y="49.222603" />
    <rect
       style="fill:#000000;stroke-width:0.436103"
       id="rect5999"
       width="3.6315453"
       height="10.19177"
       x="98.755173"
       y="43.999798" />
    <rect
       style="fill:#000000;stroke-width:0.463445"
       id="rect5997-5"
       width="15.57385"
       height="5.1151962"
       x="82.067268"
       y="67.724899" />
    <rect
       style="fill:#000000;stroke-width:0.654069"
       id="rect5997-5-5"
       width="26.61767"
       height="5.9612918"
       x="74.65287"
       y="86.701614" />
    <rect
       style="fill:#000000;stroke-width:0.431642"
       id="rect5999-8"
       width="3.8130705"
       height="9.5090322"
       x="98.191444"
       y="82.589027" />
    <rect
       style="fill:#000000;stroke-width:0.451209"
       id="rect5999-7"
       width="3.8004274"
       height="10.425271"
       x="95.318359"
       y="62.4002" />
    <rect
       style="fill:#000000;stroke-width:0.804023"
       id="rect5999-7-1"
       width="3.4793379"
       height="36.158028"
       x="83.656738"
       y="50.07832" />
    <rect
       style="fill:#000000;stroke-width:0.804023"
       id="rect5999-7-1-3"
       width="3.4793379"
       height="36.158028"
       x="112.37017"
       y="48.87648" />
    <rect
       style="fill:#000000;stroke-width:0.53196"
       id="rect5997-8"
       width="21.173534"
       height="4.9570966"
       x="105.08875"
       y="49.649113" />
    <path
       style="fill:#000000;stroke-width:0.471982"
       d="m 129.54566,49.341774 0.49808,35.783749 c -0.21171,3.452122 -2.81464,7.163779 -7.22327,8.144071 l -18.18265,0.231412 -1.74029,-3.088872 17.84363,-5.242639 0.0532,-33.289793 z"
       id="path5943-3"
       sodipodi:nodetypes="cccccccc" />
    <rect
       style="fill:#000000;stroke-width:0.537751"
       id="rect5997-5-3-7"
       width="16.06205"
       height="6.677639"
       x="176.26442"
       y="86.490059" />
    <rect
       style="fill:#000000;stroke-width:0.450289"
       id="rect5997-5-3-7-8"
       width="11.099811"
       height="6.7752914"
       x="160.57581"
       y="86.392418" />
    <rect
       style="fill:#000000;stroke-width:0.697279"
       id="rect5999-7-1-4-8"
       width="3.4992652"
       height="27.039629"
       x="147.83676"
       y="112.9528"
       transform="matrix(0.95793621,-0.2869812,0.2472765,0.96894496,0,0)" />
    <rect
       style="fill:#000000;stroke-width:0.695962"
       id="rect5999-7-1-4-3"
       width="4.0279994"
       height="23.401649"
       x="180.21016"
       y="40.970665" />
    <rect
       style="fill:#000000;stroke-width:0.583507"
       id="rect5997-5-5-8"
       width="18.162691"
       height="6.9530802"
       x="28.51281"
       y="97.717667" />
    <rect
       style="fill:#000000;stroke-width:0.251886"
       id="rect5997-5-5-1"
       width="4.8370256"
       height="4.865128"
       x="94.751945"
       y="26.994736"
       transform="matrix(0.53243004,0.84647401,-0.77194798,0.6356857,0,0)" />
    <rect
       style="fill:#000000;stroke-width:0.237335"
       id="rect5999-7-5"
       width="3.4793379"
       height="3.150589"
       x="60.108391"
       y="95.338509"
       transform="rotate(-24.911032)" />
    <rect
       style="fill:#000000;stroke-width:0.237335"
       id="rect5999-7-5-4"
       width="3.4793379"
       height="3.150589"
       x="63.099052"
       y="110.21928"
       transform="rotate(-20.482493)" />
    <rect
       style="fill:#000000;stroke-width:0.237335"
       id="rect5999-7-5-3"
       width="3.4793379"
       height="3.150589"
       x="44.607868"
       y="67.819283"
       transform="rotate(-24.911032)" />
    <rect
       style="fill:#000000;stroke-width:0.231557"
       id="rect5999-7-5-6"
       width="3.3403215"
       height="3.1238675"
       x="78.778847"
       y="75.452179"
       transform="matrix(0.93023881,-0.36695471,0.33114436,0.9435801,0,0)" />
    <rect
       style="fill:#000000;stroke-width:0.53196"
       id="rect5997-9"
       width="21.173534"
       height="4.9570966"
       x="136.71817"
       y="49.250656" />
    <rect
       style="fill:#000000;stroke-width:0.436103"
       id="rect5999-1"
       width="3.6315453"
       height="10.19177"
       x="155.54521"
       y="44.027851" />
    <rect
       style="fill:#000000;stroke-width:0.463445"
       id="rect5997-5-7"
       width="15.57385"
       height="5.1151962"
       x="138.8573"
       y="67.752953" />
    <rect
       style="fill:#000000;stroke-width:0.664697"
       id="rect5997-5-5-5"
       width="26.61767"
       height="6.1565971"
       x="131.4429"
       y="86.729668" />
    <rect
       style="fill:#000000;stroke-width:0.444741"
       id="rect5999-8-5"
       width="3.8130705"
       height="10.094948"
       x="154.98148"
       y="82.617081" />
    <rect
       style="fill:#000000;stroke-width:0.451209"
       id="rect5999-7-4"
       width="3.8004274"
       height="10.425271"
       x="152.1084"
       y="62.428253" />
    <rect
       style="fill:#000000;stroke-width:0.804023"
       id="rect5999-7-1-1"
       width="3.4793379"
       height="36.158028"
       x="140.44678"
       y="49.957047" />
    <rect
       style="fill:#000000;stroke-width:0.237335"
       id="rect5999-7-5-8"
       width="3.4793379"
       height="3.150589"
       x="111.60303"
       y="119.28452"
       transform="rotate(-24.911032)" />
    <rect
       style="fill:#000000;stroke-width:0.237335"
       id="rect5999-7-5-4-8"
       width="3.4793379"
       height="3.150589"
       x="116.28896"
       y="130.11757"
       transform="rotate(-20.482493)" />
    <rect
       style="fill:#000000;stroke-width:0.231557"
       id="rect5999-7-5-6-3"
       width="3.3403215"
       height="3.1238675"
       x="132.39465"
       y="96.332893"
       transform="matrix(0.93023881,-0.36695471,0.33114436,0.9435801,0,0)" />
    <rect
       style="fill:#000000;stroke-width:0.467218"
       id="rect5997-5-52"
       width="22.00432"
       height="3.6795239"
       x="27.697487"
       y="144.30212" />
    <rect
       style="fill:#000000;stroke-width:0.490312"
       id="rect5999-7-2"
       width="5.2043877"
       height="8.9895992"
       x="47.222939"
       y="138.97743" />
    <rect
       style="fill:#000000;stroke-width:0.317648"
       id="rect5999-7-5-66"
       width="5.423924"
       height="3.6203084"
       x="-63.869217"
       y="156.68922"
       transform="matrix(0.9405652,-0.33961317,0.66956894,0.74274992,0,0)" />
    <rect
       style="fill:#000000;stroke-width:0.355375"
       id="rect5999-7-5-66-1"
       width="5.8068323"
       height="4.2325444"
       x="-78.272354"
       y="144.40913"
       transform="matrix(0.8903032,-0.45536821,0.6541565,0.75635922,0,0)" />
    <rect
       style="fill:#000000;stroke-width:0.472057"
       id="rect5999-7-2-8"
       width="5.2726879"
       height="8.2247152"
       x="48.262993"
       y="94.346085" />
    <rect
       style="fill:#000000;stroke-width:0.317648"
       id="rect5999-7-5-66-7"
       width="5.423924"
       height="3.6203084"
       x="-38.867626"
       y="112.99018"
       transform="matrix(0.91384993,-0.40605209,0.72100562,0.69292921,0,0)" />
    <rect
       style="fill:#000000;stroke-width:0.963635"
       id="rect5999-7-1-8"
       width="4.3785725"
       height="41.272049"
       x="86.836891"
       y="73.224525"
       transform="matrix(0.91938695,0.39335435,-0.41478458,0.90991964,0,0)" />
    <rect
       style="fill:#000000;stroke-width:0.583507"
       id="rect5997-5-5-8-7"
       width="18.162691"
       height="6.9530802"
       x="115.71923"
       y="98.520256" />
    <rect
       style="fill:#000000;stroke-width:0.251886"
       id="rect5997-5-5-1-7"
       width="4.8370256"
       height="4.865128"
       x="151.23265"
       y="-46.849133"
       transform="matrix(0.53243004,0.84647401,-0.77194798,0.6356857,0,0)" />
    <rect
       style="fill:#000000;stroke-width:0.46023"
       id="rect5997-5-52-4"
       width="21.350985"
       height="3.6795239"
       x="114.63168"
       y="146.7925" />
    <rect
       style="fill:#000000;stroke-width:0.49768"
       id="rect5999-7-2-4"
       width="4.5771441"
       height="9.2618256"
       x="134.81049"
       y="141.25003" />
    <rect
       style="fill:#000000;stroke-width:0.300148"
       id="rect5999-7-5-66-9"
       width="5.0260644"
       height="3.4882579"
       x="31.322638"
       y="180.92467"
       transform="matrix(0.95891184,-0.28370422,0.56712312,0.82363303,0,0)" />
    <rect
       style="fill:#000000;stroke-width:0.355375"
       id="rect5999-7-5-66-1-1"
       width="5.8068323"
       height="4.2325444"
       x="-12.214583"
       y="187.40001"
       transform="matrix(0.8903032,-0.45536821,0.6541565,0.75635922,0,0)" />
    <rect
       style="fill:#000000;stroke-width:0.472057"
       id="rect5999-7-2-8-5"
       width="5.2726879"
       height="8.2247152"
       x="135.46942"
       y="95.148674" />
    <rect
       style="fill:#000000;stroke-width:0.317648"
       id="rect5999-7-5-66-7-5"
       width="5.423924"
       height="3.6203084"
       x="26.217508"
       y="152.0522"
       transform="matrix(0.91384993,-0.40605209,0.72100562,0.69292921,0,0)" />
    <rect
       style="fill:#000000;stroke-width:0.963635"
       id="rect5999-7-1-8-5"
       width="4.3785725"
       height="41.272049"
       x="166.54251"
       y="39.650173"
       transform="matrix(0.91938695,0.39335435,-0.41478458,0.90991964,0,0)" />
    <rect
       style="fill:#000000;stroke-width:0.804023"
       id="rect5999-7-1-3-8"
       width="3.4793379"
       height="36.158028"
       x="94.843262"
       y="102.55987" />
    <rect
       style="fill:#000000;stroke-width:0.53196"
       id="rect5997-8-2"
       width="21.173534"
       height="4.9570966"
       x="89.092979"
       y="100.28951" />
    <path
       style="fill:#000000;stroke-width:0.471982"
       d="m 111.482,105.96589 0.11519,35.39865 c 0.50993,4.65485 -2.27074,9.65897 -7.28086,9.63678 l -12.590373,0.13282 -3.147725,-3.63621 17.013078,-6.39163 3.18874,-46.109108 c -0.19366,-0.489233 1.59171,1.098384 2.51444,5.109638 z"
       id="path5943-3-9"
       sodipodi:nodetypes="ccccccccc" />
    <rect
       style="fill:#000000;stroke-width:0.289212"
       id="rect5997-5-52-4-8"
       width="6.7028518"
       height="4.628449"
       x="141.38159"
       y="145.94562" />
    <rect
       style="fill:#000000;stroke-width:0.245583"
       id="rect5999-7-5-66-1-1-2"
       width="3.5784149"
       height="3.2800076"
       x="91.575775"
       y="208.95174"
       transform="matrix(0.82831859,-0.56025737,0.30853481,0.95121305,0,0)" />
    <rect
       style="fill:#000000;stroke-width:1.03094"
       id="rect5999-7-1-3-8-0"
       width="3.723295"
       height="55.552616"
       x="145.24445"
       y="94.995079" />
    <rect
       style="fill:#000000;stroke-width:0.245583"
       id="rect5999-7-5-66-1-1-2-7"
       width="3.5784149"
       height="3.2800076"
       x="113.3493"
       y="165.62244"
       transform="matrix(0.82831859,-0.56025737,0.30853481,0.95121305,0,0)" />
    <rect
       style="fill:#000000;stroke-width:0.289212"
       id="rect5997-5-52-4-8-4"
       width="6.7028518"
       height="4.628449"
       x="-203.55756"
       y="146.33502"
       transform="scale(-1,1)" />
    <rect
       style="fill:#000000;stroke-width:0.245583"
       id="rect5999-7-5-66-1-1-2-8"
       width="3.5784149"
       height="3.2800076"
       x="-250.05084"
       y="8.1203899"
       transform="matrix(-0.82831859,-0.56025737,-0.30853481,0.95121305,0,0)" />
    <rect
       style="fill:#000000;stroke-width:1.03309"
       id="rect5999-7-1-3-8-0-5"
       width="3.723295"
       height="55.784073"
       x="-199.22339"
       y="95.186058"
       transform="scale(-1,1)" />
    <rect
       style="fill:#000000;stroke-width:0.232985"
       id="rect5999-7-5-66-1-1-2-7-8"
       width="3.9022577"
       height="2.7071271"
       x="-221.67044"
       y="6.8143287"
       transform="matrix(-0.9174964,-0.39774409,-0.45154657,0.89224755,0,0)" />
    <rect
       style="fill:#000000;stroke-width:0.493144"
       id="rect5997-9-3"
       width="18.196325"
       height="4.9570966"
       x="150.94109"
       y="100.71851" />
    <rect
       style="fill:#000000;stroke-width:0.436103"
       id="rect5999-1-0"
       width="3.6315453"
       height="10.19177"
       x="166.79092"
       y="95.495705" />
    <rect
       style="fill:#000000;stroke-width:0.463445"
       id="rect5997-5-7-6"
       width="15.57385"
       height="5.1151962"
       x="153.87584"
       y="121.44775" />
    <rect
       style="fill:#000000;stroke-width:0.521398"
       id="rect5997-5-5-5-2"
       width="20.349335"
       height="4.9550967"
       x="150.15968"
       y="145.80885" />
    <rect
       style="fill:#000000;stroke-width:0.418257"
       id="rect5999-8-5-2"
       width="3.8130705"
       height="8.9284515"
       x="166.76332"
       y="141.8157" />
    <rect
       style="fill:#000000;stroke-width:0.419725"
       id="rect5999-7-4-5"
       width="3.8004274"
       height="9.0211506"
       x="166.82751"
       y="117.58217" />
    <rect
       style="fill:#000000;stroke-width:0.804023"
       id="rect5999-7-1-1-2"
       width="3.4793379"
       height="36.158028"
       x="156.08742"
       y="103.19704" />
    <rect
       style="fill:#000000;stroke-width:0.237335"
       id="rect5999-7-5-8-2"
       width="3.4793379"
       height="3.150589"
       x="101.78559"
       y="175.5368"
       transform="rotate(-24.911032)" />
    <rect
       style="fill:#000000;stroke-width:0.237335"
       id="rect5999-7-5-4-8-7"
       width="3.4793379"
       height="3.150589"
       x="106.59807"
       y="189.46687"
       transform="rotate(-20.482493)" />
    <rect
       style="fill:#000000;stroke-width:0.231557"
       id="rect5999-7-5-6-3-1"
       width="3.3403215"
       height="3.1238675"
       x="125.95789"
       y="148.37495"
       transform="matrix(0.93023881,-0.36695471,0.33114436,0.9435801,0,0)" />
    <rect
       style="fill:#000000;stroke-width:0.434074"
       id="rect5997-9-3-2"
       width="16.089699"
       height="4.3435388"
       x="209.19893"
       y="101.00571" />
    <rect
       style="fill:#000000;stroke-width:0.259749"
       id="rect5999-1-0-8"
       width="3.4163654"
       height="3.8433278"
       x="227.20337"
       y="11.782734"
       transform="matrix(0.93356049,0.35841989,-0.32208532,0.94671065,0,0)" />
    <rect
       style="fill:#000000;stroke-width:0.423332"
       id="rect5997-5-7-6-5"
       width="13.279252"
       height="5.0055428"
       x="212.13368"
       y="121.73495" />
    <rect
       style="fill:#000000;stroke-width:0.464047"
       id="rect5997-5-5-5-2-9"
       width="17.251627"
       height="4.6297421"
       x="208.41753"
       y="146.09605" />
    <rect
       style="fill:#000000;stroke-width:1.0105"
       id="rect5999-7-1-1-2-9"
       width="3.6475294"
       height="54.480213"
       x="207.09338"
       y="96.253036" />
    <rect
       style="fill:#000000;stroke-width:0.237335"
       id="rect5999-7-5-8-2-0"
       width="3.4793379"
       height="3.150589"
       x="35.575653"
       y="252.95465"
       transform="rotate(-52.750052)" />
    <rect
       style="fill:#000000;stroke-width:0.220297"
       id="rect5999-7-5-4-8-7-5"
       width="3.2950063"
       height="2.866339"
       x="11.571711"
       y="269.40067"
       transform="matrix(0.51184615,-0.85907713,0.80723969,0.59022376,0,0)" />
    <rect
       style="fill:#000000;stroke-width:0.284049"
       id="rect5999-7-5-6-3-1-6"
       width="4.3581624"
       height="3.6028597"
       x="64.579033"
       y="249.15668"
       transform="matrix(0.48270718,-0.87578181,0.76791508,0.64055166,0,0)" />
    <path
       style="fill:#000000;stroke-width:0.443"
       d="m 217.80574,152.93065 c -0.2764,0.55547 -0.24174,1.8608 -0.21598,3.07096 0.65659,4.07551 5.34159,3.31807 5.17649,3.48625 1.37975,-0.0692 3.5169,-1.52633 4.47694,-3.53048 l -5.62041,-0.71272 z"
       id="path7288"
       sodipodi:nodetypes="cccccc" />
    <path
       style="fill:#000000;stroke-width:0.472442"
       d="m 279.28723,94.950518 0.0681,38.206532 c -0.7737,6.34742 -2.71369,6.19723 -4.79929,7.59557 l 5.86582,1.96923 5.86581,-12.37798 -4.81629,-36.947555 z"
       id="path7290"
       sodipodi:nodetypes="ccccccc" />
    <path
       style="fill:#000000;stroke-width:0.443"
       d="m 262.76743,137.1597 c 0.32213,4.07555 1.30914,10.32964 7.13126,12.8988 10.55006,3.58288 15.56561,-3.36269 17.39712,-7.97094 l -14.57463,0.0499 -7.96641,-48.73819 -1.84441,1.687765 z"
       id="path7292"
       sodipodi:nodetypes="ccccccc" />
    <rect
       style="fill:#000000;stroke-width:0.289212"
       id="rect5997-5-52-4-8-4-6"
       width="6.7028518"
       height="4.628449"
       x="-260.48685"
       y="146.91743"
       transform="scale(-1,1)" />
    <rect
       style="fill:#000000;stroke-width:0.245583"
       id="rect5999-7-5-66-1-1-2-8-4"
       width="3.5784149"
       height="3.2800076"
       x="-306.60107"
       y="-24.574999"
       transform="matrix(-0.82831859,-0.56025737,-0.30853481,0.95121305,0,0)" />
    <rect
       style="fill:#000000;stroke-width:1.03309"
       id="rect5999-7-1-3-8-0-5-6"
       width="3.723295"
       height="55.784073"
       x="-256.15265"
       y="95.768463"
       transform="scale(-1,1)" />
    <rect
       style="fill:#000000;stroke-width:0.232985"
       id="rect5999-7-5-66-1-1-2-7-8-4"
       width="3.9022577"
       height="2.7071271"
       x="-272.81879"
       y="-15.333714"
       transform="matrix(-0.9174964,-0.39774409,-0.45154657,0.89224755,0,0)" />
    <path
       style="fill:#000000;stroke-width:0.450125"
       d="m 170.73323,137.67548 c 0.32213,4.2077 1.30914,10.6646 7.13126,13.31707 10.55006,3.69906 15.02489,-5.65823 16.8564,-10.41591 l -14.03391,2.23801 -4.81202,-9.48488 -5.24145,-1.84821 z"
       id="path7292-3"
       sodipodi:nodetypes="ccccccc" />
    <path
       style="fill:#000000;stroke-width:0.450125"
       d="m 170.42102,103.62075 c -0.90586,2.33298 -1.14754,6.17005 0.65497,9.22388 l 9.52994,14.90094 c 2.14253,2.87991 6.2314,10.94517 4.63393,12.82099 1.01789,1.47837 2.11137,1.96206 1.99975,3.48217 l 2.94883,-8.89051 -11.9194,-21.37816 -5.8292,-6.96138 z"
       id="path7577"
       sodipodi:nodetypes="ccccccccc" />
    <path
       style="fill:#000000;stroke-width:0.450125"
       d="m 195.92586,109.84213 -2.26533,2.59865 -7.65496,-0.0781 c -0.083,-1.22841 0.33093,-9.71782 -3.87698,-9.22242 -1.90011,-0.10564 -2.59346,1.1002 -3.23977,2.35714 l -3.75366,-6.049931 10.0178,-4.053901 5.38645,3.638117 z"
       id="path7735"
       sodipodi:nodetypes="ccccccccc" />
    <path
       style="fill:#000000;stroke-width:0.443"
       d="m 227.65824,137.15809 c -0.0143,4.9839 -0.85527,12.60159 7.08499,14.10179 10.27245,1.40824 13.92328,-4.77036 15.75479,-9.37861 l -12.88603,0.25458 -2.83587,-48.538533 c -1.74206,-0.220892 -7.47763,4.345266 -7.11559,14.034113 z"
       id="path7292-9"
       sodipodi:nodetypes="ccccccc" />
    <path
       style="fill:#000000;stroke-width:0.443"
       d="m 251.52422,115.247 -2.26533,2.51703 -7.65496,-0.0756 c -0.0636,-1.27652 1.25149,-20.03052 -3.87698,-15.33749 -1.90011,-0.10232 -2.59346,7.47037 -3.23977,8.68784 l -3.75366,-5.85991 9.78906,-9.111365 5.61519,8.708635 z"
       id="path7735-3"
       sodipodi:nodetypes="ccccccccc" />
    <path
       style="fill:#000000;stroke-width:0.443"
       d="m 244.35109,128.73456 -2.5569,2.44573 c 0.7311,4.66815 -0.12975,8.5934 -1.61197,12.22867 l 5.94758,-0.16675 z"
       id="path7950"
       sodipodi:nodetypes="ccccc" />
    <rect
       style="fill:#000000;stroke-width:2.18625"
       id="rect5999-7-1-3-8-2"
       width="8.1252298"
       height="114.47874"
       x="56.527557"
       y="94.754471" />
    <rect
       style="fill:#000000;stroke-width:2.18625"
       id="rect5999-7-1-3-8-2-9"
       width="8.1252298"
       height="114.47874"
       x="67.846268"
       y="94.726646" />
    <rect
       style="fill:#000000;stroke-width:2.18625"
       id="rect5999-7-1-3-8-2-9-7"
       width="8.1252298"
       height="114.47874"
       x="79.477531"
       y="94.814034" />
    <rect
       style="fill:#000000;stroke-width:0.473466"
       id="rect8258"
       width="3.3921368"
       height="3.3363025"
       x="169.58652"
       y="123.63187"
       transform="matrix(0.77681084,0.629734,-0.6132666,0.78987599,0,0)" />
    <rect
       style="fill:#000000;stroke-width:0.473466"
       id="rect8258-5"
       width="3.3921368"
       height="3.3363025"
       x="178.63994"
       y="116.44388"
       transform="matrix(0.77681084,0.629734,-0.6132666,0.78987599,0,0)" />
    <rect
       style="fill:#000000;stroke-width:0.473466"
       id="rect8258-6"
       width="3.3921368"
       height="3.3363025"
       x="187.95808"
       y="109.18142"
       transform="matrix(0.77681084,0.629734,-0.6132666,0.78987599,0,0)" />
    <rect
       style="fill:#000000;stroke-width:0.473466"
       id="rect8258-53"
       width="3.3921368"
       height="3.3363025"
       x="110.95236"
       y="-13.675838"
       transform="matrix(0.46084767,0.88747925,-0.87759633,0.47940034,0,0)" />
    <rect
       style="fill:#000000;stroke-width:0.473466"
       id="rect8258-53-0"
       width="3.3921368"
       height="3.3363025"
       x="116.20211"
       y="-23.769211"
       transform="matrix(0.46084767,0.88747925,-0.87759633,0.47940034,0,0)" />
    <rect
       style="fill:#000000;stroke-width:0.473466"
       id="rect8258-53-4"
       width="3.3921368"
       height="3.3363025"
       x="122.04014"
       y="-34.014423"
       transform="matrix(0.46084767,0.88747925,-0.87759633,0.47940034,0,0)" />
    <rect
       style="fill:#000000;stroke-width:0.473466"
       id="rect8258-53-8"
       width="3.3921368"
       height="3.3363025"
       x="130.8237"
       y="-148.18672"
       transform="matrix(0.62384088,0.78155138,-0.7682658,0.64013097,0,0)" />
    <rect
       style="fill:#000000;stroke-width:0.473466"
       id="rect8258-53-8-5"
       width="3.3921368"
       height="3.3363025"
       x="138.21399"
       y="-157.44984"
       transform="matrix(0.62384088,0.78155138,-0.7682658,0.64013097,0,0)" />
    <rect
       style="fill:#000000;stroke-width:0.473466"
       id="rect8258-53-8-54"
       width="3.3921368"
       height="3.3363025"
       x="145.9395"
       y="-166.62283"
       transform="matrix(0.62384088,0.78155138,-0.7682658,0.64013097,0,0)" />
    <rect
       style="fill:#000000;stroke-width:2.04128"
       id="rect5999-7-1-3-8-2-9-7-2"
       width="9.7131901"
       height="83.484291"
       x="192.88869"
       y="9.4815464" />
    <rect
       style="fill:#000000;stroke-width:0.582785"
       id="rect8258-53-8-5-1"
       width="3.9919209"
       height="4.2953243"
       x="212.60243"
       y="-56.07888"
       transform="matrix(0.78595107,0.61828869,-0.61649191,0.78736124,0,0)" />
    <rect
       style="fill:#000000;stroke-width:2.04128"
       id="rect5999-7-1-3-8-2-9-7-2-9"
       width="9.7131901"
       height="83.484291"
       x="204.69839"
       y="9.3242598" />
    <rect
       style="fill:#000000;stroke-width:0.582785"
       id="rect8258-53-8-5-1-2"
       width="3.9919209"
       height="4.2953243"
       x="221.80399"
       y="-63.504322"
       transform="matrix(0.78595107,0.61828869,-0.61649191,0.78736124,0,0)" />
    <rect
       style="fill:#000000;stroke-width:2.04128"
       id="rect5999-7-1-3-8-2-9-7-2-4"
       width="9.7131901"
       height="83.484291"
       x="216.25854"
       y="9.6872225" />
    <rect
       style="fill:#000000;stroke-width:0.582785"
       id="rect8258-53-8-5-1-5"
       width="3.9919209"
       height="4.2953243"
       x="231.20607"
       y="-70.527573"
       transform="matrix(0.78595107,0.61828869,-0.61649191,0.78736124,0,0)" />
  </g>
  <g
     inkscape:groupmode="layer"
     id="layer2"
     inkscape:label="Warstwa 2"
     style="display:inline">
    <rect
       style="fill:#ffffff;stroke-width:0.225936"
       id="rect330"
       width="11.780023"
       height="11.258632"
       x="53.836086"
       y="78.828011"
       inkscape:label="rect330" />
    <rect
       style="fill:#ffffff;stroke-width:0.200866"
       id="rect328"
       width="11.085911"
       height="41.851543"
       x="61.021397"
       y="41.232014"
       inkscape:label="rect328" />
    <path
       style="fill:#ffffff;stroke-width:0.284238"
       id="path431"
       sodipodi:type="arc"
       sodipodi:cx="65.073746"
       sodipodi:cy="82.828819"
       sodipodi:rx="7.0086389"
       sodipodi:ry="7.2132592"
       sodipodi:start="0"
       sodipodi:end="1.5670177"
       sodipodi:arc-type="slice"
       d="m 72.082385,82.828819 a 7.0086389,7.2132592 0 0 1 -6.982156,7.213208 l -0.02648,-7.213208 z" />
    <rect
       style="fill:#ffffff;stroke-width:0.217166"
       id="rect328-8"
       width="11.085911"
       height="48.919392"
       x="74.507637"
       y="41.138744"
       inkscape:label="rect328" />
    <rect
       style="fill:#ffffff;stroke-width:0.15361"
       id="rect328-8-6"
       width="10.130508"
       height="26.784077"
       x="40.985165"
       y="-101.38621"
       inkscape:label="rect328"
       transform="rotate(90)" />
    <rect
       style="fill:#ffffff;stroke-width:0.138099"
       id="rect328-8-6-0"
       width="10.130508"
       height="21.648142"
       x="59.723824"
       y="-97.763351"
       inkscape:label="rect328"
       transform="rotate(90)" />
    <rect
       style="fill:#ffffff;stroke-width:0.152265"
       id="rect328-8-6-3"
       width="10.130508"
       height="26.317173"
       x="79.934822"
       y="-100.91248"
       inkscape:label="rect328"
       transform="rotate(90)" />
    <rect
       style="fill:#ffffff;stroke-width:0.218639"
       id="rect328-8-2"
       width="11.085911"
       height="49.585419"
       x="103.05759"
       y="40.995342"
       inkscape:label="rect328" />
    <rect
       style="fill:#ffffff;stroke-width:0.249327"
       id="rect330-6"
       width="15.947993"
       height="10.127332"
       x="103.15228"
       y="40.972389"
       inkscape:label="rect330" />
    <rect
       style="fill:#ffffff;stroke-width:0.215613"
       id="rect330-6-9"
       width="11.780023"
       height="10.253352"
       x="107.19052"
       y="80.316628"
       inkscape:label="rect330" />
    <path
       style="fill:#ffffff;stroke-width:0.435547"
       id="path431-4"
       sodipodi:type="arc"
       sodipodi:cx="-51.037842"
       sodipodi:cy="118.64034"
       sodipodi:rx="10.08525"
       sodipodi:ry="10.924268"
       sodipodi:start="0"
       sodipodi:end="1.5670177"
       sodipodi:arc-type="slice"
       d="m -40.952592,118.64034 a 10.08525,10.924268 0 0 1 -10.047141,10.92419 l -0.03811,-10.92419 z"
       transform="rotate(-90)" />
    <rect
       style="fill:#ffffff;stroke-width:0.171056"
       id="rect328-8-2-1"
       width="11.085911"
       height="30.351089"
       x="118.46527"
       y="50.689293"
       inkscape:label="rect328" />
    <path
       style="fill:#ffffff;stroke-width:0.435547"
       id="path431-4-3"
       sodipodi:type="arc"
       sodipodi:cx="118.54786"
       sodipodi:cy="80.590378"
       sodipodi:rx="11.036385"
       sodipodi:ry="9.9827957"
       sodipodi:start="0"
       sodipodi:end="1.5670177"
       sodipodi:arc-type="slice"
       d="m 129.58424,80.590378 a 11.036385,9.9827957 0 0 1 -10.99468,9.982724 l -0.0417,-9.982724 z" />
    <rect
       style="fill:#ffffff;stroke-width:0.217166"
       id="rect328-8-7"
       width="11.085911"
       height="48.919392"
       x="131.15276"
       y="41.140362"
       inkscape:label="rect328" />
    <rect
       style="fill:#ffffff;stroke-width:0.15361"
       id="rect328-8-6-8"
       width="10.130508"
       height="26.784077"
       x="40.986782"
       y="-158.03134"
       inkscape:label="rect328"
       transform="rotate(90)" />
    <rect
       style="fill:#ffffff;stroke-width:0.138099"
       id="rect328-8-6-0-8"
       width="10.130508"
       height="21.648142"
       x="59.725449"
       y="-154.40848"
       inkscape:label="rect328"
       transform="rotate(90)" />
    <rect
       style="fill:#ffffff;stroke-width:0.152265"
       id="rect328-8-6-3-3"
       width="10.130508"
       height="26.317173"
       x="79.93644"
       y="-157.5576"
       inkscape:label="rect328"
       transform="rotate(90)" />
    <rect
       style="fill:#ffffff;stroke-width:0.217166"
       id="rect328-8-7-8"
       width="11.085911"
       height="48.919392"
       x="160.58762"
       y="40.91605"
       inkscape:label="rect328" />
    <rect
       style="fill:#ffffff;stroke-width:0.217166"
       id="rect328-8-7-1"
       width="11.085911"
       height="48.919392"
       x="181.56549"
       y="40.91605"
       inkscape:label="rect328" />
    <rect
       style="fill:#ffffff;stroke-width:0.214696"
       id="rect328-8-7-5"
       width="11.034821"
       height="48.034405"
       x="151.15227"
       y="73.89109"
       inkscape:label="rect328"
       transform="matrix(0.98173389,-0.19025923,0.23657653,0.97161286,0,0)" />
    <rect
       style="fill:#ffffff;stroke-width:0.242953"
       id="rect330-6-3"
       width="15.143057"
       height="10.127332"
       x="177.32503"
       y="79.72998"
       inkscape:label="rect330" />
    <rect
       style="fill:#ffffff;stroke-width:0.251902"
       id="rect330-6-5"
       width="16.279007"
       height="10.127332"
       x="160.5594"
       y="40.913509"
       inkscape:label="rect330"
       ry="0.46533078" />
    <rect
       style="fill:url(#linearGradient3172);fill-opacity:1;stroke-width:0.258395"
       id="rect328-8-7-4-7-6-4"
       width="9.3284149"
       height="82.30571"
       x="195.47104"
       y="7.3863983"
       inkscape:label="rect328" />
    <rect
       style="fill:url(#linearGradient2904);fill-opacity:1;stroke-width:0.30568"
       id="rect328-8-7-4-7"
       width="9.3284149"
       height="115.18522"
       x="53.815128"
       y="91.798546"
       inkscape:label="rect328" />
    <rect
       style="fill:#ffffff;stroke-width:0.193099"
       id="rect328-8-2-18"
       width="7.7403131"
       height="55.394508"
       x="88.56974"
       y="92.158287"
       inkscape:label="rect328" />
    <rect
       style="fill:#ffffff;stroke-width:0.245123"
       id="rect330-6-8"
       width="16.192881"
       height="9.6406612"
       x="88.741211"
       y="92.132652"
       inkscape:label="rect330" />
    <path
       style="fill:#ffffff;stroke-width:0.338109"
       id="path431-4-5"
       sodipodi:type="arc"
       sodipodi:cx="-101.81773"
       sodipodi:cy="104.03841"
       sodipodi:rx="9.7071905"
       sodipodi:ry="6.8395867"
       sodipodi:start="0"
       sodipodi:end="1.5670177"
       sodipodi:arc-type="slice"
       d="m -92.110543,104.03841 a 9.7071905,6.8395867 0 0 1 -9.670507,6.83953 l -0.0367,-6.83953 z"
       transform="rotate(-90)" />
    <path
       style="fill:#ffffff;stroke-width:0.365299"
       id="path431-4-3-2"
       sodipodi:type="arc"
       sodipodi:cx="103.08739"
       sodipodi:cy="137.73122"
       sodipodi:rx="7.8559051"
       sodipodi:ry="9.8652887"
       sodipodi:start="0"
       sodipodi:end="1.5670177"
       sodipodi:arc-type="slice"
       d="m 110.94329,137.73122 a 7.8559051,9.8652887 0 0 1 -7.82622,9.86521 l -0.0297,-9.86521 z" />
    <rect
       style="fill:#ffffff;stroke-width:0.237708"
       id="rect330-6-8-7"
       width="15.228052"
       height="9.6406612"
       x="88.711128"
       y="137.92081"
       inkscape:label="rect330" />
    <rect
       style="fill:#ffffff;stroke-width:0.158546"
       id="rect328-8-2-18-1"
       width="7.7403131"
       height="37.343502"
       x="103.23071"
       y="101.16415"
       inkscape:label="rect328" />
    <rect
       style="fill:#ffffff;stroke-width:0.294232"
       id="rect330-6-8-77-4-8"
       width="25.831871"
       height="8.7073698"
       x="111.63675"
       y="138.56238"
       inkscape:label="rect330" />
    <rect
       style="fill:#ffffff;stroke-width:0.17257"
       id="rect328-8-2-18-4-2"
       width="7.6175442"
       height="44.956474"
       x="161.69885"
       y="38.663174"
       inkscape:label="rect328"
       transform="matrix(0.91953476,0.39300869,-0.44017826,0.89791041,0,0)" />
    <rect
       style="fill:#ffffff;stroke-width:0.294232"
       id="rect330-6-8-77-4-5-9"
       width="25.831871"
       height="8.7073698"
       x="112.9313"
       y="92.61216"
       inkscape:label="rect330" />
    <rect
       style="fill:#ffffff;stroke-width:0.192326"
       id="rect328-8-2-18-8"
       width="7.7403131"
       height="54.952328"
       x="140.35817"
       y="92.55439"
       inkscape:label="rect328" />
    <rect
       style="fill:#ffffff;stroke-width:0.192108"
       id="rect328-8-2-18-9"
       width="7.7403131"
       height="54.827534"
       x="150.04544"
       y="92.72197"
       inkscape:label="rect328" />
    <rect
       style="fill:#ffffff;stroke-width:0.25275"
       id="rect330-6-8-77-4-5-9-8"
       width="19.061546"
       height="8.7073698"
       x="150.10863"
       y="92.491409"
       inkscape:label="rect330" />
    <rect
       style="fill:url(#linearGradient3056);fill-opacity:1;stroke-width:0.30568"
       id="rect328-8-7-4-7-9"
       width="9.3284149"
       height="115.18522"
       x="65.259018"
       y="91.79454"
       inkscape:label="rect328" />
    <rect
       style="fill:url(#linearGradient3070);fill-opacity:1;stroke-width:0.30568"
       id="rect328-8-7-4-7-6"
       width="9.3284149"
       height="115.18522"
       x="76.933815"
       y="91.920074"
       inkscape:label="rect328" />
    <rect
       style="fill:#ffffff;stroke-width:0.25275"
       id="rect330-6-8-77-4-5-9-8-3"
       width="19.061546"
       height="8.7073698"
       x="150.09416"
       y="138.97888"
       inkscape:label="rect330" />
    <rect
       style="fill:#ffffff;stroke-width:0.25275"
       id="rect330-6-8-77-4-5-9-8-0"
       width="19.061546"
       height="8.7073698"
       x="150.21693"
       y="114.88232"
       inkscape:label="rect330" />
    <rect
       style="fill:url(#linearGradient3208);fill-opacity:1;stroke-width:0.258395"
       id="rect328-8-7-4-7-6-4-4"
       width="9.3284149"
       height="82.30571"
       x="207.15424"
       y="7.2605877"
       inkscape:label="rect328" />
    <rect
       style="fill:url(#linearGradient3222);fill-opacity:1;stroke-width:0.258395"
       id="rect328-8-7-4-7-6-4-7"
       width="9.3284149"
       height="82.30571"
       x="218.97037"
       y="7.4431291"
       inkscape:label="rect328" />
    <rect
       style="fill:#ffffff;stroke-width:0.283868"
       id="rect330-6-8-77-4-8-6"
       width="24.924423"
       height="8.3998394"
       x="24.804861"
       y="136.24973"
       inkscape:label="rect330" />
    <rect
       style="fill:#ffffff;stroke-width:0.166492"
       id="rect328-8-2-18-4-2-5"
       width="7.3497248"
       height="43.370335"
       x="82.607651"
       y="72.299019"
       inkscape:label="rect328"
       transform="matrix(0.91956263,0.39294347,-0.44024792,0.89787626,0,0)" />
    <rect
       style="fill:#ffffff;stroke-width:0.283868"
       id="rect330-6-8-77-4-5-9-3"
       width="24.924423"
       height="8.3998394"
       x="26.053938"
       y="91.922401"
       inkscape:label="rect330" />
    <rect
       style="fill:#ffffff;stroke-width:0.192108"
       id="rect328-8-2-18-9-8"
       width="7.7403131"
       height="54.827534"
       x="208.25911"
       y="93.020874"
       inkscape:label="rect328" />
    <rect
       style="fill:#ffffff;stroke-width:0.25275"
       id="rect330-6-8-77-4-5-9-8-6"
       width="19.061546"
       height="8.7073698"
       x="208.3223"
       y="92.790314"
       inkscape:label="rect330" />
    <rect
       style="fill:#ffffff;stroke-width:0.25275"
       id="rect330-6-8-77-4-5-9-8-3-2"
       width="19.061546"
       height="8.7073698"
       x="208.30783"
       y="139.27779"
       inkscape:label="rect330" />
    <rect
       style="fill:#ffffff;stroke-width:0.25275"
       id="rect330-6-8-77-4-5-9-8-0-5"
       width="19.061546"
       height="8.7073698"
       x="208.4306"
       y="115.18123"
       inkscape:label="rect330" />
    <rect
       style="fill:#ffffff;stroke-width:0.192326"
       id="rect328-8-2-18-8-9"
       width="7.7403131"
       height="54.952328"
       x="196.77608"
       y="92.693481"
       inkscape:label="rect328" />
    <rect
       style="fill:#ffffff;stroke-width:0.192326"
       id="rect328-8-2-18-8-9-7"
       width="7.7403131"
       height="54.952328"
       x="253.99504"
       y="93.201653"
       inkscape:label="rect328" />
    <path
       style="fill:#ffffff;stroke-width:0.443"
       d="m 244.85041,115.06136 6.7213,0.0582 c -0.0122,-7.703 2.23474,-22.575992 -11.55745,-22.614113 -7.05276,0.09711 -9.97327,4.171169 -10.71639,8.433073 l 0.0333,39.44886 c 0.002,2.07274 0.24587,4.55374 2.83563,6.59079 1.90663,1.11931 2.72093,1.67465 8.00215,1.80785 13.39672,-0.0949 11.29274,-14.76229 11.37863,-20.07906 l -7.20799,0.0466 c -0.097,3.11855 1.35582,11.82576 -3.65492,12.04601 -1.78584,-0.16905 -3.91081,-0.87909 -3.34216,-6.09072 l -0.33128,-28.58505 c 0.10038,-2.08665 0.16325,-4.50834 3.5538,-5.47188 3.48081,0.52573 3.80895,2.64151 3.94356,5.29416 z"
       id="path4659"
       sodipodi:nodetypes="ccccccccccccccc" />
    <path
       style="fill:#ffffff;stroke-width:0.450125"
       d="m 187.64847,109.68067 8.36634,0.10407 c 0.16902,-12.740943 -6.43563,-17.883992 -13.96256,-17.516416 -7.84782,-0.140135 -13.8206,9.313826 -10.97439,16.103176 l 12.30054,19.84227 c 2.03273,3.1137 5.26805,10.97409 0.68746,11.39802 -4.13406,0.67146 -4.4156,-2.92982 -4.7032,-8.1934 l -8.50041,0.0474 c 0.33716,7.20871 2.6114,16.12817 13.30642,16.64233 7.63102,0.48069 14.00757,-9.91549 10.62064,-17.7144 l -14.05193,-22.2724 c -1.62628,-2.99791 -2.0119,-6.19996 0.88908,-7.10092 6.2844,-1.597852 5.34286,5.51377 6.02201,8.66032 z"
       id="path12647"
       sodipodi:nodetypes="cccccccccccccc" />
    <path
       style="fill:#ffffff;stroke-width:0.443"
       d="m 264.85124,93.383153 7.32665,0.04307 c 0.10748,8.799847 0.25354,25.325677 0.33318,35.098177 0.0608,7.46249 -0.15721,11.44873 4.21361,11.47044 4.68584,-0.0536 4.62613,-4.57667 4.76214,-11.53255 0.20853,-10.66453 -7.4e-4,-25.35577 0.0201,-35.032138 l 7.27231,-0.0039 0.28618,42.043698 c -0.004,5.12299 -3.63224,12.76057 -12.35426,12.83371 -5.99076,0.0451 -12.06362,-4.5661 -12.00282,-12.45826 z"
       id="path14173"
       sodipodi:nodetypes="ccscscccccc" />
    <path
       style="fill:#ffffff;stroke-width:0.443"
       d="m 224.32768,146.54246 c -2.30249,1.88853 -5.78187,3.00406 -6.58755,6.83844 -0.14066,2.28849 1.01803,3.95929 3.79393,4.46544 2.13007,0.0742 4.10421,-0.37147 5.74739,-1.92027 l -0.0134,-2.91144 c -1.158,0.36631 -2.3442,0.90184 -3.34653,0.33417 -3.29487,-1.63321 -1.00624,-4.34733 1.2608,-6.50109 z"
       id="path23705"
       sodipodi:nodetypes="cccccccc" />
  </g>
</svg>
